<mxfile host="app.diagrams.net" agent="Mozilla/5.0 (Windows NT 10.0; Win64; x64) AppleWebKit/537.36 (KHTML, like Gecko) Chrome/133.0.0.0 Safari/537.36 Edg/133.0.0.0" version="26.0.11">
  <diagram name="Page-1" id="jSkCgJbJvzcSunRcgteF">
    <mxGraphModel dx="2198" dy="1900" grid="1" gridSize="10" guides="1" tooltips="1" connect="1" arrows="1" fold="1" page="1" pageScale="1" pageWidth="850" pageHeight="1100" math="0" shadow="0">
      <root>
        <mxCell id="0" />
        <mxCell id="1" parent="0" />
        <mxCell id="cU_nfysQQILPuFyANJgJ-1" value="" style="rounded=0;whiteSpace=wrap;html=1;movable=0;resizable=0;rotatable=0;deletable=0;editable=0;locked=1;connectable=0;" vertex="1" parent="1">
          <mxGeometry x="10" y="10" width="1670" height="1080" as="geometry" />
        </mxCell>
        <mxCell id="cU_nfysQQILPuFyANJgJ-35" value="" style="html=1;dashed=0;whiteSpace=wrap;fillColor=#d5e8d4;strokeColor=#82b366;" vertex="1" parent="1">
          <mxGeometry x="610" y="260" width="1055" height="790" as="geometry" />
        </mxCell>
        <mxCell id="cU_nfysQQILPuFyANJgJ-5" value="" style="rounded=0;whiteSpace=wrap;html=1;fillColor=#f5f5f5;fontColor=#333333;strokeColor=#666666;movable=0;resizable=0;rotatable=0;deletable=0;editable=0;locked=1;connectable=0;" vertex="1" parent="1">
          <mxGeometry x="70" y="60" width="1570" height="110" as="geometry" />
        </mxCell>
        <mxCell id="cU_nfysQQILPuFyANJgJ-33" value="" style="html=1;dashed=0;whiteSpace=wrap;fillColor=#fff2cc;strokeColor=#d6b656;" vertex="1" parent="1">
          <mxGeometry x="40" y="370" width="520" height="680" as="geometry" />
        </mxCell>
        <mxCell id="cU_nfysQQILPuFyANJgJ-18" style="edgeStyle=orthogonalEdgeStyle;rounded=0;orthogonalLoop=1;jettySize=auto;html=1;" edge="1" parent="1" source="cU_nfysQQILPuFyANJgJ-2" target="cU_nfysQQILPuFyANJgJ-14">
          <mxGeometry relative="1" as="geometry" />
        </mxCell>
        <mxCell id="cU_nfysQQILPuFyANJgJ-24" value="System Config" style="edgeLabel;html=1;align=center;verticalAlign=middle;resizable=0;points=[];" vertex="1" connectable="0" parent="cU_nfysQQILPuFyANJgJ-18">
          <mxGeometry x="0.0706" relative="1" as="geometry">
            <mxPoint as="offset" />
          </mxGeometry>
        </mxCell>
        <mxCell id="cU_nfysQQILPuFyANJgJ-25" style="edgeStyle=orthogonalEdgeStyle;rounded=0;orthogonalLoop=1;jettySize=auto;html=1;" edge="1" parent="1" source="cU_nfysQQILPuFyANJgJ-2" target="cU_nfysQQILPuFyANJgJ-15">
          <mxGeometry relative="1" as="geometry" />
        </mxCell>
        <mxCell id="cU_nfysQQILPuFyANJgJ-26" value="Maintenance" style="edgeLabel;html=1;align=center;verticalAlign=middle;resizable=0;points=[];" vertex="1" connectable="0" parent="cU_nfysQQILPuFyANJgJ-25">
          <mxGeometry x="-0.319" relative="1" as="geometry">
            <mxPoint as="offset" />
          </mxGeometry>
        </mxCell>
        <mxCell id="cU_nfysQQILPuFyANJgJ-2" value="System Administrators" style="html=1;dashed=0;whiteSpace=wrap;" vertex="1" parent="1">
          <mxGeometry x="100" y="90" width="100" height="50" as="geometry" />
        </mxCell>
        <mxCell id="cU_nfysQQILPuFyANJgJ-30" style="edgeStyle=orthogonalEdgeStyle;rounded=0;orthogonalLoop=1;jettySize=auto;html=1;" edge="1" parent="1" source="cU_nfysQQILPuFyANJgJ-3" target="cU_nfysQQILPuFyANJgJ-9">
          <mxGeometry relative="1" as="geometry">
            <Array as="points">
              <mxPoint x="970" y="130" />
              <mxPoint x="970" y="340" />
              <mxPoint x="740" y="340" />
            </Array>
          </mxGeometry>
        </mxCell>
        <mxCell id="cU_nfysQQILPuFyANJgJ-31" value="Credentials" style="edgeLabel;html=1;align=center;verticalAlign=middle;resizable=0;points=[];" vertex="1" connectable="0" parent="cU_nfysQQILPuFyANJgJ-30">
          <mxGeometry x="0.1939" y="1" relative="1" as="geometry">
            <mxPoint x="58" y="-111" as="offset" />
          </mxGeometry>
        </mxCell>
        <mxCell id="cU_nfysQQILPuFyANJgJ-64" style="edgeStyle=orthogonalEdgeStyle;rounded=0;orthogonalLoop=1;jettySize=auto;html=1;" edge="1" parent="1" source="cU_nfysQQILPuFyANJgJ-3" target="cU_nfysQQILPuFyANJgJ-13">
          <mxGeometry relative="1" as="geometry">
            <Array as="points">
              <mxPoint x="1090" y="115" />
              <mxPoint x="1090" y="910" />
            </Array>
          </mxGeometry>
        </mxCell>
        <mxCell id="cU_nfysQQILPuFyANJgJ-65" value="Report Requests" style="edgeLabel;html=1;align=center;verticalAlign=middle;resizable=0;points=[];" vertex="1" connectable="0" parent="cU_nfysQQILPuFyANJgJ-64">
          <mxGeometry x="-0.8442" relative="1" as="geometry">
            <mxPoint as="offset" />
          </mxGeometry>
        </mxCell>
        <mxCell id="cU_nfysQQILPuFyANJgJ-3" value="Financial Analysts" style="html=1;dashed=0;whiteSpace=wrap;" vertex="1" parent="1">
          <mxGeometry x="795" y="90" width="100" height="50" as="geometry" />
        </mxCell>
        <mxCell id="cU_nfysQQILPuFyANJgJ-45" style="edgeStyle=orthogonalEdgeStyle;rounded=0;orthogonalLoop=1;jettySize=auto;html=1;" edge="1" parent="1" source="cU_nfysQQILPuFyANJgJ-4" target="cU_nfysQQILPuFyANJgJ-11">
          <mxGeometry relative="1" as="geometry">
            <Array as="points">
              <mxPoint x="1490" y="410" />
              <mxPoint x="1490" y="410" />
            </Array>
          </mxGeometry>
        </mxCell>
        <mxCell id="cU_nfysQQILPuFyANJgJ-46" value="Financial Data" style="edgeLabel;html=1;align=center;verticalAlign=middle;resizable=0;points=[];" vertex="1" connectable="0" parent="cU_nfysQQILPuFyANJgJ-45">
          <mxGeometry x="-0.3664" y="-2" relative="1" as="geometry">
            <mxPoint y="-102" as="offset" />
          </mxGeometry>
        </mxCell>
        <mxCell id="cU_nfysQQILPuFyANJgJ-47" style="edgeStyle=orthogonalEdgeStyle;rounded=0;orthogonalLoop=1;jettySize=auto;html=1;" edge="1" parent="1" source="cU_nfysQQILPuFyANJgJ-3" target="cU_nfysQQILPuFyANJgJ-11">
          <mxGeometry relative="1" as="geometry">
            <Array as="points">
              <mxPoint x="1330" y="100" />
              <mxPoint x="1330" y="675" />
            </Array>
          </mxGeometry>
        </mxCell>
        <mxCell id="cU_nfysQQILPuFyANJgJ-49" value="Excel Files" style="edgeLabel;html=1;align=center;verticalAlign=middle;resizable=0;points=[];" vertex="1" connectable="0" parent="cU_nfysQQILPuFyANJgJ-47">
          <mxGeometry x="-0.6576" y="1" relative="1" as="geometry">
            <mxPoint x="-120" as="offset" />
          </mxGeometry>
        </mxCell>
        <mxCell id="cU_nfysQQILPuFyANJgJ-4" value="Client Companies" style="html=1;dashed=0;whiteSpace=wrap;" vertex="1" parent="1">
          <mxGeometry x="1440" y="90" width="100" height="50" as="geometry" />
        </mxCell>
        <mxCell id="cU_nfysQQILPuFyANJgJ-7" value="External Entities" style="text;html=1;align=center;verticalAlign=middle;whiteSpace=wrap;rounded=0;fontStyle=0;fontSize=10;" vertex="1" parent="1">
          <mxGeometry x="782.5" y="60" width="125" height="30" as="geometry" />
        </mxCell>
        <mxCell id="cU_nfysQQILPuFyANJgJ-28" style="edgeStyle=orthogonalEdgeStyle;rounded=0;orthogonalLoop=1;jettySize=auto;html=1;" edge="1" parent="1" source="cU_nfysQQILPuFyANJgJ-9" target="cU_nfysQQILPuFyANJgJ-3">
          <mxGeometry relative="1" as="geometry">
            <Array as="points">
              <mxPoint x="650" y="115" />
            </Array>
          </mxGeometry>
        </mxCell>
        <mxCell id="cU_nfysQQILPuFyANJgJ-29" value="Access Grant" style="edgeLabel;html=1;align=center;verticalAlign=middle;resizable=0;points=[];" vertex="1" connectable="0" parent="cU_nfysQQILPuFyANJgJ-28">
          <mxGeometry x="-0.4773" y="1" relative="1" as="geometry">
            <mxPoint x="1" y="69" as="offset" />
          </mxGeometry>
        </mxCell>
        <mxCell id="cU_nfysQQILPuFyANJgJ-38" style="edgeStyle=orthogonalEdgeStyle;rounded=0;orthogonalLoop=1;jettySize=auto;html=1;jumpStyle=arc;" edge="1" parent="1" source="cU_nfysQQILPuFyANJgJ-9" target="cU_nfysQQILPuFyANJgJ-14">
          <mxGeometry relative="1" as="geometry">
            <Array as="points">
              <mxPoint x="690" y="560" />
            </Array>
          </mxGeometry>
        </mxCell>
        <mxCell id="cU_nfysQQILPuFyANJgJ-40" value="Verify Access" style="edgeLabel;html=1;align=center;verticalAlign=middle;resizable=0;points=[];" vertex="1" connectable="0" parent="cU_nfysQQILPuFyANJgJ-38">
          <mxGeometry x="0.0949" y="-2" relative="1" as="geometry">
            <mxPoint x="183" y="2" as="offset" />
          </mxGeometry>
        </mxCell>
        <mxCell id="cU_nfysQQILPuFyANJgJ-58" style="edgeStyle=orthogonalEdgeStyle;rounded=0;orthogonalLoop=1;jettySize=auto;html=1;jumpStyle=arc;" edge="1" parent="1" source="cU_nfysQQILPuFyANJgJ-9" target="cU_nfysQQILPuFyANJgJ-17">
          <mxGeometry relative="1" as="geometry">
            <Array as="points">
              <mxPoint x="710" y="960" />
            </Array>
          </mxGeometry>
        </mxCell>
        <mxCell id="cU_nfysQQILPuFyANJgJ-59" value="Access Log" style="edgeLabel;html=1;align=center;verticalAlign=middle;resizable=0;points=[];" vertex="1" connectable="0" parent="cU_nfysQQILPuFyANJgJ-58">
          <mxGeometry x="0.5793" y="-4" relative="1" as="geometry">
            <mxPoint x="10" y="4" as="offset" />
          </mxGeometry>
        </mxCell>
        <mxCell id="cU_nfysQQILPuFyANJgJ-9" value="5.0&lt;br&gt;Multi-Factor Authentication (MFA) for User Authentication" style="html=1;dashed=0;whiteSpace=wrap;" vertex="1" parent="1">
          <mxGeometry x="612.5" y="410" width="170" height="50" as="geometry" />
        </mxCell>
        <mxCell id="cU_nfysQQILPuFyANJgJ-37" style="edgeStyle=orthogonalEdgeStyle;rounded=0;orthogonalLoop=1;jettySize=auto;html=1;" edge="1" parent="1" source="cU_nfysQQILPuFyANJgJ-10" target="cU_nfysQQILPuFyANJgJ-15">
          <mxGeometry relative="1" as="geometry">
            <Array as="points">
              <mxPoint x="940" y="610" />
              <mxPoint x="460" y="610" />
            </Array>
          </mxGeometry>
        </mxCell>
        <mxCell id="cU_nfysQQILPuFyANJgJ-41" value="Validated Data" style="edgeLabel;html=1;align=center;verticalAlign=middle;resizable=0;points=[];" vertex="1" connectable="0" parent="cU_nfysQQILPuFyANJgJ-37">
          <mxGeometry x="-0.05" y="-3" relative="1" as="geometry">
            <mxPoint x="-119" y="3" as="offset" />
          </mxGeometry>
        </mxCell>
        <mxCell id="cU_nfysQQILPuFyANJgJ-52" style="edgeStyle=orthogonalEdgeStyle;rounded=0;orthogonalLoop=1;jettySize=auto;html=1;" edge="1" parent="1" source="cU_nfysQQILPuFyANJgJ-10" target="cU_nfysQQILPuFyANJgJ-17">
          <mxGeometry relative="1" as="geometry">
            <Array as="points">
              <mxPoint x="980" y="820" />
              <mxPoint x="425" y="820" />
            </Array>
          </mxGeometry>
        </mxCell>
        <mxCell id="cU_nfysQQILPuFyANJgJ-53" value="Validation Log" style="edgeLabel;html=1;align=center;verticalAlign=middle;resizable=0;points=[];" vertex="1" connectable="0" parent="cU_nfysQQILPuFyANJgJ-52">
          <mxGeometry x="0.1072" y="-1" relative="1" as="geometry">
            <mxPoint x="-144" y="1" as="offset" />
          </mxGeometry>
        </mxCell>
        <mxCell id="cU_nfysQQILPuFyANJgJ-10" value="2.0&lt;br&gt;Automated anomaly detection for Data Validation" style="html=1;dashed=0;whiteSpace=wrap;" vertex="1" parent="1">
          <mxGeometry x="895" y="410" width="170" height="50" as="geometry" />
        </mxCell>
        <mxCell id="cU_nfysQQILPuFyANJgJ-50" style="edgeStyle=orthogonalEdgeStyle;rounded=0;orthogonalLoop=1;jettySize=auto;html=1;" edge="1" parent="1" source="cU_nfysQQILPuFyANJgJ-11" target="cU_nfysQQILPuFyANJgJ-17">
          <mxGeometry relative="1" as="geometry">
            <Array as="points">
              <mxPoint x="1610" y="675" />
              <mxPoint x="1610" y="1030" />
              <mxPoint x="425" y="1030" />
            </Array>
          </mxGeometry>
        </mxCell>
        <mxCell id="cU_nfysQQILPuFyANJgJ-51" value="Import Log" style="edgeLabel;html=1;align=center;verticalAlign=middle;resizable=0;points=[];" vertex="1" connectable="0" parent="cU_nfysQQILPuFyANJgJ-50">
          <mxGeometry x="-0.8077" y="-3" relative="1" as="geometry">
            <mxPoint x="-967" y="241" as="offset" />
          </mxGeometry>
        </mxCell>
        <mxCell id="cU_nfysQQILPuFyANJgJ-11" value="1.0&lt;br&gt;Data Import Process" style="html=1;dashed=0;whiteSpace=wrap;" vertex="1" parent="1">
          <mxGeometry x="1400" y="650" width="170" height="50" as="geometry" />
        </mxCell>
        <mxCell id="cU_nfysQQILPuFyANJgJ-54" style="edgeStyle=orthogonalEdgeStyle;rounded=0;orthogonalLoop=1;jettySize=auto;html=1;" edge="1" parent="1" source="cU_nfysQQILPuFyANJgJ-12" target="cU_nfysQQILPuFyANJgJ-17">
          <mxGeometry relative="1" as="geometry">
            <Array as="points">
              <mxPoint x="1215" y="990" />
            </Array>
          </mxGeometry>
        </mxCell>
        <mxCell id="cU_nfysQQILPuFyANJgJ-55" value="Analyses Log" style="edgeLabel;html=1;align=center;verticalAlign=middle;resizable=0;points=[];" vertex="1" connectable="0" parent="cU_nfysQQILPuFyANJgJ-54">
          <mxGeometry x="0.3006" y="1" relative="1" as="geometry">
            <mxPoint x="-153" as="offset" />
          </mxGeometry>
        </mxCell>
        <mxCell id="cU_nfysQQILPuFyANJgJ-62" style="edgeStyle=orthogonalEdgeStyle;rounded=0;orthogonalLoop=1;jettySize=auto;html=1;" edge="1" parent="1" source="cU_nfysQQILPuFyANJgJ-12" target="cU_nfysQQILPuFyANJgJ-13">
          <mxGeometry relative="1" as="geometry">
            <Array as="points">
              <mxPoint x="1180" y="940" />
            </Array>
          </mxGeometry>
        </mxCell>
        <mxCell id="cU_nfysQQILPuFyANJgJ-63" value="Processed Data" style="edgeLabel;html=1;align=center;verticalAlign=middle;resizable=0;points=[];" vertex="1" connectable="0" parent="cU_nfysQQILPuFyANJgJ-62">
          <mxGeometry x="-0.247" y="1" relative="1" as="geometry">
            <mxPoint x="20" y="-1" as="offset" />
          </mxGeometry>
        </mxCell>
        <mxCell id="cU_nfysQQILPuFyANJgJ-12" value="3.0&lt;br&gt;Financial Analysis" style="html=1;dashed=0;whiteSpace=wrap;" vertex="1" parent="1">
          <mxGeometry x="1130" y="770" width="170" height="50" as="geometry" />
        </mxCell>
        <mxCell id="cU_nfysQQILPuFyANJgJ-56" style="edgeStyle=orthogonalEdgeStyle;rounded=0;orthogonalLoop=1;jettySize=auto;html=1;jumpStyle=arc;" edge="1" parent="1" source="cU_nfysQQILPuFyANJgJ-13" target="cU_nfysQQILPuFyANJgJ-20">
          <mxGeometry relative="1" as="geometry">
            <Array as="points">
              <mxPoint x="955" y="860" />
              <mxPoint x="160" y="860" />
            </Array>
          </mxGeometry>
        </mxCell>
        <mxCell id="cU_nfysQQILPuFyANJgJ-57" value="Generated Reports" style="edgeLabel;html=1;align=center;verticalAlign=middle;resizable=0;points=[];" vertex="1" connectable="0" parent="cU_nfysQQILPuFyANJgJ-56">
          <mxGeometry x="-0.5798" y="-1" relative="1" as="geometry">
            <mxPoint x="-164" as="offset" />
          </mxGeometry>
        </mxCell>
        <mxCell id="cU_nfysQQILPuFyANJgJ-60" style="edgeStyle=orthogonalEdgeStyle;rounded=0;orthogonalLoop=1;jettySize=auto;html=1;jumpStyle=arc;" edge="1" parent="1" source="cU_nfysQQILPuFyANJgJ-13" target="cU_nfysQQILPuFyANJgJ-17">
          <mxGeometry relative="1" as="geometry">
            <Array as="points">
              <mxPoint x="570" y="925" />
              <mxPoint x="570" y="925" />
            </Array>
          </mxGeometry>
        </mxCell>
        <mxCell id="cU_nfysQQILPuFyANJgJ-61" value="Report Log" style="edgeLabel;html=1;align=center;verticalAlign=middle;resizable=0;points=[];" vertex="1" connectable="0" parent="cU_nfysQQILPuFyANJgJ-60">
          <mxGeometry x="0.5528" relative="1" as="geometry">
            <mxPoint x="76" as="offset" />
          </mxGeometry>
        </mxCell>
        <mxCell id="cU_nfysQQILPuFyANJgJ-13" value="4.0 Report Generation" style="html=1;dashed=0;whiteSpace=wrap;" vertex="1" parent="1">
          <mxGeometry x="870" y="900" width="170" height="50" as="geometry" />
        </mxCell>
        <mxCell id="cU_nfysQQILPuFyANJgJ-14" value="User Directory Active Directory" style="shape=cylinder;whiteSpace=wrap;html=1;boundedLbl=1;backgroundOutline=1;" vertex="1" parent="1">
          <mxGeometry x="100" y="500" width="100" height="100" as="geometry" />
        </mxCell>
        <mxCell id="cU_nfysQQILPuFyANJgJ-32" style="edgeStyle=orthogonalEdgeStyle;rounded=0;orthogonalLoop=1;jettySize=auto;html=1;jumpStyle=arc;" edge="1" parent="1" source="cU_nfysQQILPuFyANJgJ-14" target="cU_nfysQQILPuFyANJgJ-9">
          <mxGeometry relative="1" as="geometry">
            <Array as="points">
              <mxPoint x="180" y="435" />
            </Array>
          </mxGeometry>
        </mxCell>
        <mxCell id="cU_nfysQQILPuFyANJgJ-39" value="Role Info" style="edgeLabel;html=1;align=center;verticalAlign=middle;resizable=0;points=[];" vertex="1" connectable="0" parent="cU_nfysQQILPuFyANJgJ-32">
          <mxGeometry x="-0.0056" y="2" relative="1" as="geometry">
            <mxPoint x="-148" y="-8" as="offset" />
          </mxGeometry>
        </mxCell>
        <mxCell id="cU_nfysQQILPuFyANJgJ-42" style="edgeStyle=orthogonalEdgeStyle;rounded=0;orthogonalLoop=1;jettySize=auto;html=1;" edge="1" parent="1" source="cU_nfysQQILPuFyANJgJ-15" target="cU_nfysQQILPuFyANJgJ-20">
          <mxGeometry relative="1" as="geometry">
            <Array as="points">
              <mxPoint x="130" y="720" />
            </Array>
          </mxGeometry>
        </mxCell>
        <mxCell id="cU_nfysQQILPuFyANJgJ-43" value="Backup" style="edgeLabel;html=1;align=center;verticalAlign=middle;resizable=0;points=[];" vertex="1" connectable="0" parent="cU_nfysQQILPuFyANJgJ-42">
          <mxGeometry x="-0.8446" y="2" relative="1" as="geometry">
            <mxPoint x="-14" y="-2" as="offset" />
          </mxGeometry>
        </mxCell>
        <mxCell id="cU_nfysQQILPuFyANJgJ-15" value="Client Database SQL Server 2012" style="shape=cylinder;whiteSpace=wrap;html=1;boundedLbl=1;backgroundOutline=1;" vertex="1" parent="1">
          <mxGeometry x="360" y="655" width="130" height="140" as="geometry" />
        </mxCell>
        <mxCell id="cU_nfysQQILPuFyANJgJ-17" value="Audit Logs" style="shape=cylinder;whiteSpace=wrap;html=1;boundedLbl=1;backgroundOutline=1;" vertex="1" parent="1">
          <mxGeometry x="375" y="910" width="100" height="100" as="geometry" />
        </mxCell>
        <mxCell id="cU_nfysQQILPuFyANJgJ-21" style="edgeStyle=orthogonalEdgeStyle;rounded=0;orthogonalLoop=1;jettySize=auto;html=1;jumpStyle=arc;" edge="1" parent="1" source="cU_nfysQQILPuFyANJgJ-20" target="cU_nfysQQILPuFyANJgJ-3">
          <mxGeometry relative="1" as="geometry">
            <Array as="points">
              <mxPoint x="70" y="960" />
              <mxPoint x="70" y="200" />
              <mxPoint x="845" y="200" />
            </Array>
          </mxGeometry>
        </mxCell>
        <mxCell id="cU_nfysQQILPuFyANJgJ-23" value="PDF/Excel" style="edgeLabel;html=1;align=center;verticalAlign=middle;resizable=0;points=[];" vertex="1" connectable="0" parent="cU_nfysQQILPuFyANJgJ-21">
          <mxGeometry x="0.5802" y="-2" relative="1" as="geometry">
            <mxPoint as="offset" />
          </mxGeometry>
        </mxCell>
        <mxCell id="cU_nfysQQILPuFyANJgJ-20" value="Secure Data Exchange API" style="html=1;dashed=0;whiteSpace=wrap;" vertex="1" parent="1">
          <mxGeometry x="100" y="935" width="100" height="50" as="geometry" />
        </mxCell>
        <mxCell id="cU_nfysQQILPuFyANJgJ-34" value="Data Stores" style="text;html=1;align=center;verticalAlign=middle;whiteSpace=wrap;rounded=0;" vertex="1" parent="1">
          <mxGeometry x="250" y="370" width="80" height="30" as="geometry" />
        </mxCell>
        <mxCell id="cU_nfysQQILPuFyANJgJ-36" value="Key Processes" style="text;html=1;align=center;verticalAlign=middle;whiteSpace=wrap;rounded=0;fontStyle=0;fontSize=10;" vertex="1" parent="1">
          <mxGeometry x="1060" y="260" width="125" height="30" as="geometry" />
        </mxCell>
      </root>
    </mxGraphModel>
  </diagram>
</mxfile>
